<?xml version="1.0" standalone="no"?>
<!DOCTYPE svg PUBLIC "-//W3C//DTD SVG 20010904//EN"
 "http://www.w3.org/TR/2001/REC-SVG-20010904/DTD/svg10.dtd">
<svg version="1.0" xmlns="http://www.w3.org/2000/svg"
 width="1024.000000pt" height="1024.000000pt" viewBox="0 0 1024.000000 1024.000000"
 preserveAspectRatio="xMidYMid meet">
<metadata>
Created by potrace 1.14, written by Peter Selinger 2001-2017
</metadata>
<g transform="translate(0.000000,1024.000000) scale(0.100000,-0.100000)"
fill="#000000" stroke="none">
<path d="M0 5120 l0 -5120 5120 0 5120 0 0 5120 0 5120 -5120 0 -5120 0 0
-5120z m5371 3860 c748 -58 1453 -316 2059 -754 898 -650 1496 -1670 1601
-2731 19 -184 16 -623 -5 -780 -76 -590 -228 -1066 -479 -1500 -78 -136 -246
-382 -327 -480 -181 -221 -463 -498 -675 -666 -352 -277 -783 -505 -1215 -642
-359 -114 -576 -156 -964 -187 -584 -46 -1267 83 -1876 354 -325 145 -696 379
-940 595 -419 370 -739 775 -956 1211 -348 696 -483 1563 -359 2305 126 751
452 1410 992 2001 249 273 656 591 983 769 569 310 1060 457 1695 508 96 8
342 6 466 -3z"/>
<path d="M4855 8629 c-747 -64 -1527 -394 -2100 -888 -656 -566 -1093 -1355
-1200 -2167 -22 -166 -30 -526 -16 -709 66 -863 403 -1599 1011 -2205 431
-430 886 -708 1466 -894 910 -293 1776 -236 2673 173 433 199 917 580 1232
971 424 527 628 982 743 1660 45 262 57 543 36 835 -38 540 -238 1107 -562
1596 -304 459 -680 818 -1168 1116 -611 373 -1428 571 -2115 512z m366 -518
c36 -36 38 -80 7 -115 -51 -56 -148 -21 -148 54 0 40 47 90 85 90 16 0 38 -12
56 -29z m855 -18 c-36 -55 -60 -147 -53 -204 24 -203 271 -292 415 -149 36 37
38 33 17 -36 -19 -64 -73 -127 -139 -162 -45 -24 -62 -27 -146 -27 -110 0
-150 16 -230 91 -136 128 -127 348 19 470 30 25 131 68 139 59 2 -2 -8 -20
-22 -42z m-1532 1 c29 -28 14 -88 -24 -95 -33 -6 -70 11 -76 36 -14 57 59 100
100 59z m-624 -166 c23 -25 25 -40 9 -71 -23 -43 -66 -50 -99 -17 -26 26 -25
58 2 87 27 29 61 29 88 1z m3130 -288 c42 -42 13 -110 -45 -110 -60 0 -84 70
-39 114 21 22 60 20 84 -4z m-3770 -30 c27 -27 25 -56 -5 -86 -19 -18 -31 -23
-48 -19 -49 15 -65 81 -25 109 30 21 54 20 78 -4z m1260 -131 c66 -30 130 -98
130 -139 0 -7 -155 -10 -490 -10 -269 0 -490 3 -490 6 0 28 70 108 115 131 55
29 79 31 385 32 286 1 308 -1 350 -20z m2430 -303 c198 -55 366 -185 441 -341
l29 -60 -167 -5 c-104 -3 -167 -9 -166 -15 8 -54 176 -585 191 -604 34 -46 55
-51 243 -51 l176 0 36 -92 c20 -51 39 -105 43 -120 l6 -28 -1731 0 -1731 0 0
263 c0 286 -3 302 -64 374 -50 59 -103 76 -256 81 -159 5 -232 -7 -289 -48
-22 -17 -51 -49 -63 -72 -22 -41 -23 -54 -26 -320 l-3 -278 -402 0 -402 0 -85
85 -85 85 -97 0 -98 0 0 358 c0 378 3 410 50 502 39 78 102 151 173 201 98 69
162 91 287 99 58 4 965 7 2015 6 1811 -2 1913 -3 1975 -20z m-3010 -1445 c14
-26 13 -74 -2 -89 -7 -7 -40 -12 -80 -12 -74 0 -88 11 -88 67 0 43 17 53 92
53 56 0 69 -3 78 -19z m3927 -121 c12 -36 23 -66 23 -67 0 -2 -81 -3 -181 -3
l-181 0 -34 34 c-35 35 -44 72 -22 94 9 9 61 12 192 10 l179 -3 24 -65z
m-4247 -196 l0 -136 -42 -42 c-50 -50 -106 -164 -115 -234 -5 -48 -8 -52 -37
-57 -17 -3 -213 -5 -436 -3 -405 3 -405 3 -443 26 -20 13 -50 45 -65 70 l-27
47 -3 233 -3 232 585 0 586 0 0 -136z m3724 107 c21 -40 71 -88 117 -111 35
-18 59 -20 260 -20 l221 0 -4 -88 c-3 -71 -10 -99 -35 -152 -41 -87 -92 -143
-161 -177 l-57 -28 -236 -2 -237 -3 -16 72 c-9 39 -29 96 -44 127 -34 69 -149
187 -218 223 -201 107 -464 62 -617 -105 -58 -63 -125 -193 -135 -262 l-7 -50
-842 -2 -841 -2 -11 67 c-15 87 -60 179 -116 237 l-45 46 0 129 0 130 1505 0
1504 0 15 -29z m-3261 -375 c216 -95 202 -414 -22 -491 -178 -61 -369 86 -347
268 22 188 202 297 369 223z m2699 4 c99 -37 178 -144 178 -241 0 -97 -60
-198 -144 -241 -63 -32 -159 -36 -224 -8 -58 25 -115 82 -143 144 -47 103 -3
248 95 314 83 55 151 65 238 32z m-3753 -550 c48 -24 78 -71 91 -141 14 -71
120 -769 120 -786 0 -8 -22 -13 -67 -15 -56 -2 -68 -6 -71 -21 -9 -45 4 -47
298 -47 304 1 322 -2 371 -56 57 -63 71 -60 -289 -67 -339 -7 -377 -4 -425 33
-48 38 -57 75 -57 243 0 166 -6 196 -48 240 -48 51 -52 52 -332 57 l-265 5 -7
45 c-3 25 -20 124 -37 220 -39 221 -39 239 -2 279 l29 31 326 0 c305 0 329 -1
365 -20z m4842 7 c24 -18 39 -52 39 -86 0 -27 -34 -253 -61 -407 l-11 -61 -90
-7 c-50 -3 -164 -6 -253 -6 -150 0 -165 -2 -206 -23 -76 -40 -88 -74 -91 -268
-4 -180 -10 -204 -68 -253 l-32 -26 -359 0 -360 0 16 29 c8 17 31 43 52 58
l36 28 301 6 c166 3 302 6 302 7 9 12 12 35 8 47 -5 11 -23 15 -74 15 l-69 0
5 33 c2 17 29 203 60 412 63 432 69 455 144 493 43 21 52 22 370 22 240 -1
329 -4 341 -13z m-2829 -76 c111 -70 203 -184 246 -304 38 -106 38 -240 -1
-355 -45 -133 -26 -166 50 -87 60 63 103 156 111 242 4 37 11 68 17 68 14 0
129 -225 166 -325 108 -297 65 -583 -116 -765 -53 -54 -152 -115 -185 -115 -7
0 2 18 19 39 58 73 85 147 85 231 -1 127 -38 212 -159 362 -99 122 -133 190
-175 356 -13 49 -27 47 -35 -6 -27 -154 -67 -249 -150 -352 -188 -233 -213
-386 -95 -568 22 -34 35 -62 29 -62 -32 0 -137 70 -189 127 -106 116 -160 262
-160 433 0 177 54 336 161 473 56 71 90 99 75 61 -13 -33 -28 -156 -22 -180 4
-13 12 -24 20 -24 18 0 129 151 165 225 16 33 42 96 57 140 24 71 27 95 28
215 1 74 -3 150 -7 168 -11 41 3 42 65 3z m-1199 -457 c87 -44 105 -86 108
-245 l1 -124 -63 0 -64 0 -5 98 c-5 93 -7 100 -33 123 -28 24 -31 24 -230 24
-111 0 -208 4 -215 9 -8 5 -16 35 -19 70 l-6 61 247 0 c208 0 252 -3 279 -16z
m3023 -46 c-4 -34 -10 -66 -12 -70 -3 -4 -95 -8 -205 -8 -268 0 -277 -5 -281
-160 l-3 -85 -65 0 -65 0 -3 98 c-3 116 8 165 50 213 62 70 74 73 347 74 l244
0 -7 -62z m-4053 -158 c25 -20 26 -24 29 -163 2 -78 7 -150 12 -159 8 -17 -3
-18 -155 -18 -183 0 -202 5 -253 73 -28 36 -66 184 -66 255 l0 32 204 0 c189
0 205 -1 229 -20z m5007 13 c-2 -61 -35 -224 -53 -260 -41 -84 -52 -88 -258
-91 -178 -3 -180 -3 -170 17 6 11 11 78 11 156 0 131 1 137 25 160 24 25 24
25 235 25 115 0 210 -3 210 -7z m-5060 -598 l66 -66 56 56 55 55 76 0 c43 0
77 -3 77 -7 0 -5 -39 -50 -86 -101 -74 -82 -83 -96 -72 -110 7 -9 64 -73 126
-141 100 -108 113 -127 110 -154 -3 -35 -36 -58 -71 -49 -23 6 -78 59 -189
180 l-75 84 -108 -121 c-59 -66 -116 -123 -126 -126 -19 -6 -59 10 -71 29 -21
31 -4 60 100 172 59 64 109 123 110 131 2 9 -32 53 -80 102 -46 47 -92 96
-102 109 l-19 22 79 0 78 0 66 -65z m4900 59 c0 -4 -48 -56 -107 -116 l-107
-108 30 -33 c183 -197 194 -211 194 -238 0 -34 -31 -69 -61 -69 -14 0 -44 24
-83 67 -34 37 -85 92 -114 123 l-52 55 -123 -128 c-102 -106 -127 -127 -151
-127 -35 0 -66 25 -66 54 0 13 49 73 130 159 l131 139 -63 70 c-35 38 -73 83
-85 98 l-23 28 31 6 c83 16 107 9 171 -51 l61 -58 60 68 61 67 83 0 c46 0 83
-3 83 -6z m-4246 -106 l76 -83 83 83 82 82 73 0 c39 0 72 -3 72 -6 0 -4 -47
-60 -105 -124 -58 -65 -105 -122 -105 -127 0 -5 16 -25 36 -44 86 -82 154
-169 154 -199 0 -33 -23 -50 -67 -50 -23 0 -46 19 -120 97 l-92 98 -76 -83
c-42 -45 -83 -82 -91 -82 -24 0 -64 47 -64 74 0 17 19 46 58 88 31 35 63 71
70 80 12 15 -1 32 -102 141 -64 69 -116 127 -116 131 0 3 36 6 79 6 l79 0 76
-82z m3144 66 c12 -8 49 -46 81 -83 l59 -69 83 84 84 84 78 0 79 0 -39 -44
c-21 -24 -75 -85 -121 -135 l-83 -90 70 -76 c78 -83 89 -117 51 -155 -43 -43
-69 -25 -201 134 -4 4 -38 -25 -76 -65 -37 -40 -79 -84 -92 -96 -43 -41 -113
-23 -113 30 0 20 24 54 97 132 l98 106 -19 22 c-11 12 -61 68 -111 124 -51 57
-93 105 -93 108 0 3 33 5 73 5 50 0 80 -5 95 -16z m-1950 -494 c51 -30 92 -57
92 -60 0 -3 -30 -25 -67 -49 -57 -37 -67 -41 -75 -27 -29 53 -84 79 -190 91
-32 4 -58 10 -58 14 0 4 12 19 28 33 78 76 137 75 270 -2z m1162 50 c41 -11
115 -69 103 -80 -4 -5 -41 -13 -81 -19 -87 -13 -125 -31 -149 -69 -9 -15 -18
-29 -20 -31 -4 -5 -133 82 -133 89 0 13 196 120 220 120 14 0 41 -4 60 -10z
m-1363 -148 c12 -9 23 -26 25 -37 6 -34 -44 -49 -192 -55 -178 -7 -200 -22
-200 -135 0 -59 -7 -66 -34 -36 -15 17 -17 35 -14 115 3 84 6 97 28 121 14 15
34 31 45 35 11 5 88 9 170 9 127 0 153 -2 172 -17z m1731 -2 c44 -27 62 -74
62 -164 0 -59 -4 -79 -20 -97 l-19 -24 -1 55 c0 64 -26 115 -66 130 -14 6 -69
10 -122 10 -95 0 -194 18 -216 40 -16 16 5 43 45 57 19 7 92 12 169 12 118 1
139 -2 168 -19z m-971 -40 c12 -25 22 -47 22 -50 1 -3 -42 -5 -94 -5 -52 0
-95 1 -95 3 0 1 11 25 25 53 l26 50 47 -3 c45 -3 48 -5 69 -48z m-346 -107
c-38 -82 -71 -156 -74 -165 -4 -10 -11 -18 -17 -18 -24 0 -150 71 -150 85 0 8
28 36 62 63 34 26 100 77 147 114 47 37 89 68 93 68 3 0 -24 -66 -61 -147z
m627 43 c112 -84 182 -142 182 -149 0 -9 -162 -79 -173 -74 -10 4 -147 303
-147 322 0 4 6 3 13 -3 6 -5 63 -48 125 -96z m-955 -47 c15 -19 18 -35 15 -81
-7 -92 -17 -98 -163 -98 -81 0 -125 4 -133 12 -7 7 -12 38 -12 69 0 51 3 60
30 83 17 14 47 28 68 31 20 4 44 8 52 10 8 2 39 2 69 1 43 -2 58 -8 74 -27z
m1441 6 c45 -22 58 -50 54 -120 l-3 -60 -132 -3 -131 -3 -21 27 c-43 54 -38
147 9 172 33 17 177 9 224 -13z m-755 1 c42 -15 70 -50 77 -97 5 -29 1 -41
-19 -65 -25 -29 -26 -29 -140 -29 -108 0 -117 1 -141 24 -38 35 -36 89 4 135
17 19 41 37 53 39 45 9 133 5 166 -7z m-1341 -78 l3 -68 -322 0 c-318 0 -323
0 -346 22 -39 36 -26 91 27 111 8 3 155 5 325 4 l310 -2 3 -67z m3077 47 c14
-13 25 -33 25 -45 0 -11 -11 -32 -25 -45 l-24 -25 -276 0 -275 0 0 63 c0 35 3
67 7 70 3 4 127 7 275 7 l269 0 24 -25z m-950 -314 c50 -5 62 -10 74 -32 20
-36 7 -75 -32 -99 -31 -19 -56 -20 -1134 -20 -833 0 -1108 3 -1128 12 -33 15
-58 62 -49 91 3 12 16 30 28 39 20 16 94 17 1101 17 594 -1 1107 -4 1140 -8z"/>
<path d="M2934 7008 c-38 -10 -73 -46 -84 -87 -13 -49 -13 -695 0 -743 15 -51
68 -119 110 -140 67 -34 176 -19 226 32 24 24 37 29 77 30 57 0 97 19 123 57
22 34 32 205 15 269 -13 49 -58 94 -103 103 l-33 7 -3 92 -3 92 971 0 970 0 0
-95 0 -95 -210 0 c-252 0 -270 -5 -302 -77 -19 -42 -20 -59 -14 -161 11 -192
11 -192 337 -192 l241 0 32 -27 c64 -54 150 -68 223 -38 52 22 72 42 99 100
24 50 24 53 24 413 0 397 -2 410 -58 449 -26 17 -89 18 -1320 18 -711 0 -1304
-3 -1318 -7z m189 -260 c3 -79 6 -227 6 -329 1 -174 0 -188 -20 -213 -15 -19
-30 -26 -54 -26 -64 0 -65 5 -65 371 0 179 3 329 7 332 3 4 32 7 63 7 l58 0 5
-142z m2359 -190 c2 -212 -1 -339 -7 -352 -15 -31 -75 -34 -101 -5 -18 20 -19
40 -22 342 -2 176 -1 326 2 334 4 9 25 13 65 13 l60 0 3 -332z"/>
<path d="M6023 6758 c-47 -23 -53 -58 -53 -312 0 -264 5 -291 62 -326 31 -18
50 -20 267 -20 l233 0 34 34 34 34 0 269 c0 300 -1 304 -68 323 -49 13 -480
12 -509 -2z"/>
<path d="M6760 6485 c0 -391 -3 -385 197 -385 112 0 125 2 144 21 28 28 26 41
-62 329 -39 129 -76 253 -83 275 l-12 40 -92 3 -92 3 0 -286z"/>
<path d="M2726 5339 c-40 -11 -74 -46 -87 -90 -31 -103 80 -199 176 -153 53
25 77 67 72 127 -7 81 -84 137 -161 116z"/>
<path d="M4742 5428 c-7 -7 -12 -21 -12 -33 0 -42 13 -45 237 -45 204 0 213 1
223 21 9 16 8 26 -5 45 l-15 24 -208 0 c-148 0 -211 -3 -220 -12z"/>
<path d="M5420 5353 c-43 -16 -50 -34 -50 -122 0 -127 4 -131 139 -131 70 0
111 4 119 12 8 8 12 48 12 113 0 131 -4 135 -121 134 -46 0 -91 -3 -99 -6z"/>
<path d="M5803 5353 c-17 -2 -37 -10 -43 -18 -6 -7 -12 -56 -13 -110 -3 -124
-1 -125 138 -125 132 0 135 3 135 126 0 122 -5 128 -107 130 -43 1 -92 0 -110
-3z"/>
<path d="M4742 5248 c-19 -19 -15 -66 7 -78 22 -11 348 -14 401 -4 43 9 61 46
35 74 -17 19 -31 20 -225 20 -147 0 -209 -3 -218 -12z"/>
</g>
</svg>
